<?xml version="1.0" encoding="utf-8"?>
<!-- Generator: Adobe Illustrator 23.0.2, SVG Export Plug-In . SVG Version: 6.00 Build 0)  -->
<svg version="1.1" id="Layer_1" xmlns="http://www.w3.org/2000/svg" xmlns:xlink="http://www.w3.org/1999/xlink" x="0px" y="0px"
	 viewBox="0 0 111 34" style="enable-background:new 0 0 111 34;" xml:space="preserve">
<style type="text/css">
	.st0{fill-rule:evenodd;clip-rule:evenodd;fill:#FF0000;}
	.st1{fill-rule:evenodd;clip-rule:evenodd;fill:#FFFFFF;}
	.st2{fill-rule:evenodd;clip-rule:evenodd;fill:#003896;}
	.st3{enable-background:new    ;}
	.st4{fill:#003896;}
</style>
<path class="st0" d="M59.2,2.2h47.4c1.9,0,3.4,1.4,3.4,3.2v12.3c0,1.7-1.5,3.2-3.4,3.2H59.2c-1.9,0-3.4-1.4-3.4-3.2V5.4
	C55.9,3.7,57.4,2.2,59.2,2.2z"/>
<path class="st1" d="M58.2,14.6V8.2h1.2v6.4H58.2z"/>
<path class="st1" d="M60.6,14.6V8.2h1.2l2.6,4.2V8.2h1.2v6.4h-1.3l-2.5-4.1v4.1H60.6z"/>
<path class="st1" d="M66.5,12.5l1.2-0.1c0.1,0.4,0.2,0.7,0.4,0.9c0.2,0.2,0.5,0.3,0.9,0.3s0.7-0.1,0.9-0.3c0.2-0.2,0.3-0.4,0.3-0.6
	c0-0.1,0-0.3-0.1-0.4c-0.1-0.1-0.2-0.2-0.4-0.3c-0.1-0.1-0.5-0.1-1-0.3c-0.7-0.2-1.1-0.4-1.4-0.6c-0.4-0.3-0.6-0.7-0.6-1.2
	c0-0.3,0.1-0.6,0.3-0.9c0.2-0.3,0.4-0.5,0.8-0.6c0.3-0.1,0.7-0.2,1.2-0.2c0.8,0,1.3,0.2,1.7,0.5c0.4,0.3,0.6,0.8,0.6,1.4l-1.2,0.1
	c-0.1-0.3-0.2-0.5-0.3-0.7c-0.2-0.1-0.4-0.2-0.8-0.2s-0.6,0.1-0.8,0.2C68.1,9.6,68,9.7,68,9.9c0,0.1,0.1,0.3,0.2,0.4
	c0.2,0.1,0.5,0.3,1.1,0.4c0.6,0.1,1,0.3,1.3,0.4c0.3,0.2,0.5,0.4,0.7,0.6c0.2,0.3,0.2,0.6,0.2,1s-0.1,0.7-0.3,1
	c-0.2,0.3-0.5,0.5-0.8,0.7c-0.4,0.1-0.8,0.2-1.3,0.2c-0.8,0-1.4-0.2-1.8-0.5C66.8,13.7,66.6,13.2,66.5,12.5z"/>
<path class="st1" d="M72.4,8.2h1.3v3.4c0,0.5,0,0.9,0,1c0.1,0.3,0.2,0.5,0.4,0.6c0.2,0.2,0.5,0.2,0.8,0.2c0.4,0,0.6-0.1,0.8-0.2
	c0.2-0.1,0.3-0.3,0.3-0.5s0.1-0.6,0.1-1.1V8.2h1.3v3.3c0,0.8,0,1.3-0.1,1.6s-0.2,0.6-0.4,0.8c-0.2,0.2-0.4,0.4-0.7,0.5
	c-0.3,0.1-0.7,0.2-1.2,0.2c-0.6,0-1-0.1-1.4-0.2c-0.3-0.1-0.6-0.3-0.7-0.5c-0.2-0.2-0.3-0.5-0.4-0.7c-0.1-0.4-0.1-0.9-0.1-1.6
	L72.4,8.2L72.4,8.2z"/>
<path class="st1" d="M78.8,14.6V8.2h2.6c0.6,0,1.1,0.1,1.4,0.2c0.3,0.1,0.5,0.3,0.7,0.6s0.3,0.6,0.3,1c0,0.5-0.1,0.9-0.4,1.2
	s-0.7,0.5-1.2,0.6c0.3,0.2,0.5,0.3,0.7,0.5s0.4,0.5,0.7,1l0.7,1.2h-1.5l-0.9-1.4c-0.3-0.5-0.5-0.8-0.6-0.9C81.2,12.1,81,12,80.9,12
	s-0.3-0.1-0.6-0.1H80v2.7C80,14.6,78.8,14.6,78.8,14.6z M80,10.9h0.9c0.6,0,1,0,1.1-0.1s0.3-0.1,0.3-0.3c0.1-0.1,0.1-0.3,0.1-0.5
	s-0.1-0.4-0.2-0.5s-0.3-0.2-0.5-0.2c-0.1,0-0.4,0-0.9,0h-1v1.6H80z"/>
<path class="st1" d="M90.4,14.6h-1.3l-0.5-1.4h-2.5l-0.5,1.4h-1.3l2.4-6.4H88L90.4,14.6z M88.1,12.1l-0.8-2.4l-0.8,2.4H88.1z"/>
<path class="st1" d="M91.1,14.6V8.2h1.2l2.6,4.2V8.2h1.2v6.4h-1.3l-2.5-4.1v4.1H91.1z"/>
<path class="st1" d="M101.3,12.2l1.2,0.4c-0.2,0.7-0.5,1.2-0.9,1.5s-1,0.5-1.7,0.5c-0.8,0-1.5-0.3-2-0.8c-0.5-0.6-0.8-1.3-0.8-2.3
	s0.3-1.8,0.8-2.4s1.2-0.8,2.1-0.8c0.8,0,1.4,0.2,1.9,0.7c0.3,0.3,0.5,0.6,0.6,1.1l-1.2,0.3c-0.1-0.3-0.2-0.6-0.5-0.8
	c-0.2-0.2-0.5-0.3-0.9-0.3c-0.5,0-0.8,0.2-1.1,0.5c-0.3,0.3-0.4,0.9-0.4,1.6c0,0.8,0.1,1.3,0.4,1.7c0.3,0.3,0.7,0.5,1.1,0.5
	c0.3,0,0.6-0.1,0.9-0.3C101,13,101.2,12.7,101.3,12.2z"/>
<path class="st1" d="M103.7,14.6V8.2h4.6v1.1h-3.4v1.4h3.1v1.1h-3.1v1.7h3.5v1.1H103.7z"/>
<path class="st2" d="M4.5,2.2h47.2c1.8,0,3.4,1.4,3.4,3.2v12.3c0,1.7-1.5,3.2-3.4,3.2H4.5c-1.8,0-3.4-1.4-3.4-3.2V5.4
	C1.2,3.7,2.7,2.2,4.5,2.2z"/>
<path class="st1" d="M15.9,16.8h-3l-1.2-2.5H6.4l-1.1,2.5H2.4L7.6,6h2.9L15.9,16.8z M10.9,12.5L9,8.5l-1.8,4H10.9z"/>
<path class="st1" d="M17.3,16.8V6h2.8v10.8H17.3z"/>
<path class="st1" d="M22.5,16.8V6h2.8v10.8H22.5z"/>
<path class="st1" d="M36.6,13l2.7,0.7c-0.4,1.2-1.1,2.1-2,2.6c-0.9,0.6-2.2,0.9-3.6,0.9c-1.8,0-3.3-0.5-4.4-1.5
	c-1.2-1-1.7-2.3-1.7-4c0-1.8,0.6-3.2,1.8-4.2C30.6,6.5,32.1,6,34,6c1.7,0,3,0.4,4,1.2c0.6,0.5,1.1,1.1,1.4,2l-2.7,0.5
	c-0.2-0.6-0.5-1-1-1.3c-0.7-0.4-1.3-0.6-2-0.6c-1,0-1.8,0.3-2.5,0.9c-0.6,0.6-0.9,1.5-0.9,2.8c0,1.4,0.3,2.3,0.9,2.9
	c0.6,0.6,1.4,0.9,2.4,0.9c0.7,0,1.4-0.2,1.9-0.6C36,14.4,36.4,13.8,36.6,13z"/>
<path class="st1" d="M40.9,11.6c0-1.1,0.2-2,0.6-2.8c0.3-0.6,0.7-1,1.3-1.5c0.5-0.4,1.1-0.8,1.7-1C45.4,6.1,46.3,6,47.4,6
	c2,0,3.6,0.5,4.7,1.5c1.2,1,1.8,2.4,1.8,4.1c0,1.8-0.6,3.1-1.8,4.1s-2.8,1.5-4.7,1.5c-2,0-3.6-0.5-4.8-1.5
	C41.5,14.7,40.9,13.4,40.9,11.6z M43.7,11.6c0,1.2,0.4,2.2,1.1,2.8c0.7,0.6,1.6,0.9,2.7,0.9c1.1,0,2-0.3,2.7-0.9
	c0.7-0.6,1-1.6,1-2.8s-0.3-2.2-1-2.8s-1.6-0.9-2.7-0.9c-1.1,0-2,0.3-2.7,0.9C44.1,9.4,43.7,10.3,43.7,11.6z"/>
<g class="st3">
	<path class="st4" d="M3.5,27.5l-0.3,1.1H1.8l1.4-4.9H5l1.5,4.9H5l-0.3-1.1H3.5z M4.5,26.5l-0.2-0.9c-0.1-0.3-0.2-0.7-0.2-1h0
		c-0.1,0.3-0.1,0.7-0.2,1l-0.2,0.9H4.5z"/>
	<path class="st4" d="M11.9,26.9c0-0.6,0-1.2,0-2h0c-0.2,0.6-0.4,1.4-0.5,1.9l-0.5,1.7h-1l-0.4-1.7c-0.1-0.5-0.3-1.3-0.4-1.9h0
		c0,0.7-0.1,1.4-0.1,2l-0.1,1.8H7.7L8,23.7h1.8l0.3,1.3c0.1,0.5,0.3,1.2,0.4,1.8h0c0.1-0.6,0.3-1.3,0.4-1.8l0.4-1.3H13l0.2,4.9H12
		L11.9,26.9z"/>
	<path class="st4" d="M17.9,26.7h-1.8v0.9h2v1.1h-3.3v-4.9H18v1.1h-1.9v0.8h1.8V26.7z"/>
	<path class="st4" d="M19.5,23.8c0.4-0.1,0.9-0.1,1.6-0.1c0.8,0,1.3,0.1,1.7,0.4c0.3,0.2,0.5,0.6,0.5,1.1c0,0.6-0.5,1-0.8,1.2v0
		c0.3,0.1,0.5,0.5,0.6,0.9c0.1,0.5,0.3,1.2,0.4,1.4h-1.3c-0.1-0.1-0.2-0.5-0.3-1.1c-0.1-0.6-0.3-0.7-0.7-0.7h-0.2v1.8h-1.3V23.8z
		 M20.8,25.9h0.3c0.5,0,0.8-0.2,0.8-0.6c0-0.4-0.2-0.6-0.7-0.6c-0.2,0-0.4,0-0.4,0V25.9z"/>
	<path class="st4" d="M26,23.7v4.9h-1.3v-4.9H26z"/>
	<path class="st4" d="M31.3,28.5c-0.2,0.1-0.6,0.2-1.2,0.2c-1.8,0-2.6-1.1-2.6-2.5c0-1.7,1.3-2.6,2.7-2.6c0.6,0,1,0.1,1.2,0.2
		l-0.3,1c-0.2-0.1-0.5-0.2-0.9-0.2c-0.8,0-1.4,0.4-1.4,1.5c0,0.9,0.5,1.5,1.4,1.5c0.3,0,0.7-0.1,0.9-0.1L31.3,28.5z"/>
	<path class="st4" d="M34.1,27.5l-0.3,1.1h-1.4l1.4-4.9h1.8l1.5,4.9h-1.4l-0.3-1.1H34.1z M35.1,26.5l-0.2-0.9
		c-0.1-0.3-0.2-0.7-0.2-1h0c-0.1,0.3-0.1,0.7-0.2,1l-0.2,0.9H35.1z"/>
	<path class="st4" d="M38.4,28.6v-4.9h1.6l0.8,1.5c0.3,0.5,0.6,1.1,0.8,1.7h0c-0.1-0.6-0.1-1.3-0.1-2.1v-1.2h1.2v4.9h-1.4L40.4,27
		c-0.3-0.5-0.6-1.2-0.8-1.8h0c0,0.7,0.1,1.4,0.1,2.2v1.2H38.4z"/>
	<path class="st4" d="M47.7,23.7v4.9h-1.3v-4.9H47.7z"/>
	<path class="st4" d="M49.3,28.6v-4.9h1.6l0.8,1.5c0.3,0.5,0.6,1.1,0.8,1.7h0c-0.1-0.6-0.1-1.3-0.1-2.1v-1.2h1.2v4.9h-1.4L51.3,27
		c-0.3-0.5-0.6-1.2-0.8-1.8h0c0,0.7,0.1,1.4,0.1,2.2v1.2H49.3z"/>
	<path class="st4" d="M56,24.8h-1.3v-1.1h3.9v1.1h-1.3v3.8H56V24.8z"/>
	<path class="st4" d="M63,26.7h-1.8v0.9h2v1.1h-3.3v-4.9h3.2v1.1h-1.9v0.8H63V26.7z"/>
	<path class="st4" d="M64.6,23.8c0.4-0.1,0.9-0.1,1.6-0.1c0.8,0,1.3,0.1,1.7,0.4c0.3,0.2,0.5,0.6,0.5,1.1c0,0.6-0.5,1-0.8,1.2v0
		c0.3,0.1,0.5,0.5,0.6,0.9c0.1,0.5,0.3,1.2,0.4,1.4h-1.3c-0.1-0.1-0.2-0.5-0.3-1.1c-0.1-0.6-0.3-0.7-0.7-0.7H66v1.8h-1.3V23.8z
		 M66,25.9h0.3c0.5,0,0.8-0.2,0.8-0.6c0-0.4-0.2-0.6-0.7-0.6c-0.2,0-0.4,0-0.4,0V25.9z"/>
	<path class="st4" d="M69.8,28.6v-4.9h1.6l0.8,1.5c0.3,0.5,0.6,1.1,0.8,1.7h0c-0.1-0.6-0.1-1.3-0.1-2.1v-1.2h1.2v4.9h-1.4L71.8,27
		c-0.3-0.5-0.6-1.2-0.8-1.8h0c0,0.7,0.1,1.4,0.1,2.2v1.2H69.8z"/>
	<path class="st4" d="M77,27.5l-0.3,1.1h-1.4l1.4-4.9h1.8l1.5,4.9h-1.4l-0.3-1.1H77z M78,26.5l-0.2-0.9c-0.1-0.3-0.2-0.7-0.2-1h0
		c-0.1,0.3-0.1,0.7-0.2,1l-0.2,0.9H78z"/>
	<path class="st4" d="M81.6,24.8h-1.3v-1.1h3.9v1.1h-1.3v3.8h-1.3V24.8z"/>
	<path class="st4" d="M86.8,23.7v4.9h-1.3v-4.9H86.8z"/>
	<path class="st4" d="M93,26.1c0,1.6-0.9,2.6-2.5,2.6c-1.5,0-2.4-1.1-2.4-2.5c0-1.4,0.9-2.6,2.4-2.6C92.2,23.6,93,24.8,93,26.1z
		 M89.6,26.2c0,0.9,0.4,1.5,1,1.5s1-0.6,1-1.5c0-0.8-0.4-1.5-1-1.5C90,24.7,89.6,25.3,89.6,26.2z"/>
	<path class="st4" d="M94.4,28.6v-4.9H96l0.8,1.5c0.3,0.5,0.6,1.1,0.8,1.7h0c-0.1-0.6-0.1-1.3-0.1-2.1v-1.2h1.2v4.9h-1.4L96.4,27
		c-0.3-0.5-0.6-1.2-0.8-1.8h0c0,0.7,0.1,1.4,0.1,2.2v1.2H94.4z"/>
	<path class="st4" d="M101.6,27.5l-0.3,1.1h-1.4l1.4-4.9h1.8l1.5,4.9h-1.4l-0.3-1.1H101.6z M102.6,26.5l-0.2-0.9
		c-0.1-0.3-0.2-0.7-0.2-1h0c-0.1,0.3-0.1,0.7-0.2,1l-0.2,0.9H102.6z"/>
	<path class="st4" d="M105.9,23.7h1.3v3.8h1.9v1.1h-3.2V23.7z"/>
</g>
</svg>
